<svg xmlns="http://www.w3.org/2000/svg" viewBox="0 0 32 32" width="32" height="32" role="img" aria-label="宪政与治理">
<title>宪政与治理</title>
<path class="bt-fill-field bt-stroke-ink" fill="#2f474c" stroke="#e2e6e0" stroke-width="1.75" stroke-linejoin="round" d="M8.2,5.6 H23.8 V26 H8.2 Z"/>
<path class="bt-stroke-silver" fill="none" stroke="#a9bbbb" stroke-width="1.4" stroke-linejoin="round" stroke-linecap="round" d="M11.4,10.4 H20.6 M11.4,13.8 H20.6 M11.4,17.2 H15.2"/>
<path class="bt-fill-ink" fill="#e2e6e0" d="M7.85,3.55 H24.15 A1.45,1.45 0 0 1 25.6,5 A1.45,1.45 0 0 1 24.15,6.45 H7.85 A1.45,1.45 0 0 1 6.4,5 A1.45,1.45 0 0 1 7.85,3.55 Z M3.65,5 A2.05,2.05 0 1 1 7.75,5 A2.05,2.05 0 1 1 3.65,5 Z M24.25,5 A2.05,2.05 0 1 1 28.35,5 A2.05,2.05 0 1 1 24.25,5 Z M7.85,24.75 H24.15 A1.45,1.45 0 0 1 25.6,26.2 A1.45,1.45 0 0 1 24.15,27.65 H7.85 A1.45,1.45 0 0 1 6.4,26.2 A1.45,1.45 0 0 1 7.85,24.75 Z M3.65,26.2 A2.05,2.05 0 1 1 7.75,26.2 A2.05,2.05 0 1 1 3.65,26.2 Z M24.25,26.2 A2.05,2.05 0 1 1 28.35,26.2 A2.05,2.05 0 1 1 24.25,26.2 Z"/>
<path class="bt-fill-ink" fill="#e2e6e0" fill-rule="evenodd" d="M16.3,19.8 A3.9,3.9 0 1 1 24.1,19.8 A3.9,3.9 0 1 1 16.3,19.8 Z M20.2,18 L21.5,19.8 L20.2,21.6 L18.9,19.8 Z"/>
</svg>
