<svg xmlns="http://www.w3.org/2000/svg" viewBox="0 0 32 32" width="32" height="32" role="img" aria-label="魔法体系与魔法法">
<title>魔法体系与魔法法</title>
<path class="bt-fill-field bt-stroke-ink" fill="#2f474c" stroke="#e2e6e0" stroke-width="1.75" stroke-linejoin="round" fill-rule="evenodd" d="M3.7,24.2 A12.3,4.7 0 1 1 28.3,24.2 A12.3,4.7 0 1 1 3.7,24.2 Z M8.8,24.2 A7.2,2.25 0 1 1 23.2,24.2 A7.2,2.25 0 1 1 8.8,24.2 Z"/>
<path class="bt-fill-ink" fill="#e2e6e0" d="M16,2.6 L11.1,8.1 V14.5 L16,20.2 Z"/>
<path class="bt-fill-silver" fill="#a9bbbb" d="M16,2.6 L20.9,8.1 V14.5 L16,20.2 Z"/>
<path class="bt-fill-silver" fill="#a9bbbb" d="M5.8,6.9 Q6.47,9.28 8.2,10.2 Q6.47,11.12 5.8,13.5 Q5.13,11.12 3.4,10.2 Q5.13,9.28 5.8,6.9 Z M26.2,6.9 Q26.87,9.28 28.6,10.2 Q26.87,11.12 26.2,13.5 Q25.53,11.12 23.8,10.2 Q25.53,9.28 26.2,6.9 Z"/>
</svg>
